<svg id="Capa_1" data-name="Capa 1" xmlns="http://www.w3.org/2000/svg" viewBox="0 0 557.69 511.93"><title>splash</title><path d="M579.39,291.37c-2-66.93-55.8-121.7-122.69-124.74a128.35,128.35,0,0,0-98.16,38.76,8.09,8.09,0,0,1-9.74,1.46l-0.14-.08a7.63,7.63,0,0,1-2.46-11.2,99.62,99.62,0,0,0,19.64-62.47c-1.47-52-43.32-94.67-95.28-97.07A100.07,100.07,0,0,0,165.76,136q0,4.08.32,8.08a22.28,22.28,0,0,1-25.79,23.67A103.31,103.31,0,0,0,120,166.58c-54,2.22-97.44,46.91-98.19,101a102.51,102.51,0,0,0,102.5,104q4,0,7.84-.3a27.06,27.06,0,0,1,26.44,15.26A137.3,137.3,0,0,0,282.3,464.25l1.22,0a99.15,99.15,0,1,0,195.77-31.62,12.5,12.5,0,0,1,8.59-14.09A128.79,128.79,0,0,0,579.39,291.37Z" transform="translate(-21.76 -35.92)"/><circle cx="87.83" cy="399.72" r="47.47"/><circle cx="162.21" cy="436.43" r="24.22"/></svg>